<svg xmlns="http://www.w3.org/2000/svg" viewBox="0 0 120 100"><defs><radialGradient id="g"><stop stop-color="#fff7bc"/><stop offset="1" stop-color="#f2b82d"/></radialGradient></defs><circle cx="60" cy="43" r="34" fill="url(#g)" opacity=".22"/><path d="M43 37c0-14 8-24 18-24s18 10 18 24c0 10-5 15-10 20-3 3-4 6-4 10H55c0-4-1-7-4-10-5-5-8-10-8-20Z" fill="#f6c63f" stroke="#744719" stroke-width="4"/><path d="M53 69h16M54 76h14" stroke="#744719" stroke-width="4" stroke-linecap="round"/><path d="M60 0v8M92 15l-6 6M28 15l6 6M101 44h-9M28 44h-9" stroke="#efb82b" stroke-width="4" stroke-linecap="round"/></svg>
